<svg xmlns="http://www.w3.org/2000/svg" viewBox="0 0 24 24" id="Weather-Cresent-Moon-Stars--Streamline-Pixel.svg" height="24" width="24"><desc>Weather Cresent Moon Stars Streamline Icon: https://streamlinehq.com</desc><title>weather-cresent-moon-stars</title><g><path d="m22.2825 8.5725 -1.1400000000000001 0 0 1.1400000000000001 -1.1400000000000001 0 0 1.1475 1.1400000000000001 0 0 1.1400000000000001 1.1400000000000001 0 0 -1.1400000000000001 1.1475 0 0 -1.1475 -1.1475 0 0 -1.1400000000000001z" fill="#000000" stroke-width="1"></path><path d="M21.142500000000002 16.575000000000003h1.1400000000000001v1.1400000000000001h-1.1400000000000001Z" fill="#000000" stroke-width="1"></path><path d="m20.0025 0.5700000000000001 0 1.1475 -1.1475 0 0 1.1400000000000001 1.1475 0 0 1.1400000000000001 1.1400000000000001 0 0 -1.1400000000000001 1.1400000000000001 0 0 -1.1400000000000001 -1.1400000000000001 0 0 -1.1475 -1.1400000000000001 0z" fill="#000000" stroke-width="1"></path><path d="M18.855 6.285h1.1475v1.1475h-1.1475Z" fill="#000000" stroke-width="1"></path><path d="m18.855 20.0025 -1.1400000000000001 0 0 1.1400000000000001 -1.1475 0 0 1.1475 1.1475 0 0 1.1400000000000001 1.1400000000000001 0 0 -1.1400000000000001 1.1475 0 0 -1.1475 -1.1475 0 0 -1.1400000000000001z" fill="#000000" stroke-width="1"></path><path d="M17.715 14.287500000000001h1.1400000000000001v1.1400000000000001h-1.1400000000000001Z" fill="#000000" stroke-width="1"></path><path d="m16.5675 16.575000000000003 -6.855 0 0 1.1400000000000001 5.715 0 0 1.1400000000000001 1.1400000000000001 0 0 -2.2800000000000002z" fill="#000000" stroke-width="1"></path><path d="m9.712499999999999 6.285 0 1.1475 6.855 0 0 -2.2874999999999996 -1.1400000000000001 0 0 1.1400000000000001 -5.715 0z" fill="#000000" stroke-width="1"></path><path d="M13.14 18.855h2.2874999999999996v1.1475h-2.2874999999999996Z" fill="#000000" stroke-width="1"></path><path d="m14.287500000000001 14.287500000000001 0 -1.1400000000000001 1.1400000000000001 0 0 -1.1475 -1.1400000000000001 0 0 -1.1400000000000001 -1.1475 0 0 1.1400000000000001L12 12l0 1.1475 1.1400000000000001 0 0 1.1400000000000001 1.1475 0z" fill="#000000" stroke-width="1"></path><path d="M13.14 3.9975h2.2874999999999996v1.1475h-2.2874999999999996Z" fill="#000000" stroke-width="1"></path><path d="M7.425000000000001 20.0025h5.715v1.1400000000000001H7.425000000000001Z" fill="#000000" stroke-width="1"></path><path d="M8.5725 15.4275h1.1400000000000001v1.1475h-1.1400000000000001Z" fill="#000000" stroke-width="1"></path><path d="M8.5725 7.4325h1.1400000000000001v1.1400000000000001h-1.1400000000000001Z" fill="#000000" stroke-width="1"></path><path d="M7.425000000000001 2.8575h5.715v1.1400000000000001H7.425000000000001Z" fill="#000000" stroke-width="1"></path><path d="M7.425000000000001 8.5725h1.1475v6.855H7.425000000000001Z" fill="#000000" stroke-width="1"></path><path d="M5.1450000000000005 18.855H7.425000000000001v1.1475H5.1450000000000005Z" fill="#000000" stroke-width="1"></path><path d="M5.1450000000000005 3.9975H7.425000000000001v1.1475H5.1450000000000005Z" fill="#000000" stroke-width="1"></path><path d="M3.9975 17.715h1.1475v1.1400000000000001H3.9975Z" fill="#000000" stroke-width="1"></path><path d="M3.9975 5.1450000000000005h1.1475v1.1400000000000001H3.9975Z" fill="#000000" stroke-width="1"></path><path d="M2.8575 15.4275h1.1400000000000001v2.2874999999999996H2.8575Z" fill="#000000" stroke-width="1"></path><path d="M2.8575 6.285h1.1400000000000001v2.2874999999999996H2.8575Z" fill="#000000" stroke-width="1"></path><path d="M1.7175 22.29h1.1400000000000001v1.1400000000000001H1.7175Z" fill="#000000" stroke-width="1"></path><path d="M1.7175 8.5725h1.1400000000000001v6.855H1.7175Z" fill="#000000" stroke-width="1"></path><path d="M0.5700000000000001 2.8575h1.1475v1.1400000000000001H0.5700000000000001Z" fill="#000000" stroke-width="1"></path></g></svg>